{
  "asset": {
    "version": "2.0",
    "generator": "THREE.GLTFExporter"
  },
  "scenes": [
    {
      "nodes": [
        0,
        1,
        2
      ]
    }
  ],
  "scene": 0,
  "nodes": [
    {
      "name": "obj_tri",
      "mesh": 0
    },
    {
      "name": "obj_line",
      "mesh": 1
    },
    {
      "name": "obj_pt",
      "mesh": 2
    }
  ],
  "bufferViews": [
    {
      "buffer": 0,
      "byteOffset": 0,
      "byteLength": 17520,
      "target": 34962,
      "byteStride": 12
    },
    {
      "buffer": 0,
      "byteOffset": 17520,
      "byteLength": 17520,
      "target": 34962,
      "byteStride": 12
    },
    {
      "buffer": 0,
      "byteOffset": 35040,
      "byteLength": 17520,
      "target": 34962,
      "byteStride": 12
    },
    {
      "buffer": 0,
      "byteOffset": 52560,
      "byteLength": 1284,
      "target": 34963
    },
    {
      "buffer": 0,
      "byteOffset": 53844,
      "byteLength": 27408,
      "target": 34962,
      "byteStride": 12
    },
    {
      "buffer": 0,
      "byteOffset": 81252,
      "byteLength": 27408,
      "target": 34962,
      "byteStride": 12
    },
    {
      "buffer": 0,
      "byteOffset": 108660,
      "byteLength": 9136,
      "target": 34962,
      "byteStride": 4
    }
  ],
  "buffers": [
    {
      "byteLength": 117796,
      "uri": "data:application/octet-stream;base64,"
    }
  ],
  "accessors": [
    {
      "bufferView": 0,
      "componentType": 5126,
      "count": 1460,
      "max": [
        1639.207275390625,
        411.2939758300781,
        0.20000000298023224
      ],
      "min": [
        -1336.39404296875,
        -1949.4700927734375,
        0
      ],
      "type": "VEC3"
    },
    {
      "bufferView": 1,
      "componentType": 5126,
      "count": 1460,
      "max": [
        1,
        0,
        1
      ],
      "min": [
        0,
        0,
        0
      ],
      "type": "VEC3"
    },
    {
      "bufferView": 2,
      "componentType": 5126,
      "count": 1460,
      "max": [
        1,
        1,
        1
      ],
      "min": [
        0.5,
        0.5899999737739563,
        0.5
      ],
      "type": "VEC3"
    },
    {
      "bufferView": 3,
      "componentType": 5123,
      "count": 642,
      "max": [
        1459
      ],
      "min": [
        1204
      ],
      "type": "SCALAR"
    },
    {
      "bufferView": 4,
      "componentType": 5126,
      "count": 2284,
      "max": [
        1639.207275390625,
        407.5503845214844,
        0
      ],
      "min": [
        -1336.39404296875,
        -1945.5482177734375,
        0
      ],
      "type": "VEC3"
    },
    {
      "bufferView": 5,
      "componentType": 5126,
      "count": 2284,
      "max": [
        1,
        1,
        1
      ],
      "min": [
        0.5,
        0.6387421488761902,
        0.5
      ],
      "type": "VEC3"
    },
    {
      "bufferView": 6,
      "componentType": 5126,
      "count": 2284,
      "max": [
        50524.52734375
      ],
      "min": [
        0
      ],
      "type": "SCALAR"
    }
  ],
  "materials": [
    {
      "pbrMetallicRoughness": {
        "metallicFactor": 0.5,
        "roughnessFactor": 0.5
      },
      "doubleSided": true
    },
    {
      "pbrMetallicRoughness": {
        "baseColorFactor": [
          0.8666666666666667,
          0.8666666666666667,
          0.8666666666666667,
          1
        ],
        "metallicFactor": 0.5,
        "roughnessFactor": 0.5
      },
      "doubleSided": true
    },
    {
      "pbrMetallicRoughness": {
        "metallicFactor": 0.5,
        "roughnessFactor": 0.5
      },
      "doubleSided": true
    },
    {
      "pbrMetallicRoughness": {
        "metallicFactor": 0.5,
        "roughnessFactor": 0.5
      },
      "doubleSided": true
    }
  ],
  "meshes": [
    {
      "primitives": [
        {
          "mode": 4,
          "attributes": {
            "POSITION": 0,
            "NORMAL": 1,
            "COLOR_0": 2
          },
          "indices": 3,
          "material": 0
        },
        {
          "mode": 4,
          "attributes": {
            "POSITION": 0,
            "NORMAL": 1,
            "COLOR_0": 2
          },
          "indices": 3,
          "material": 1
        }
      ]
    },
    {
      "primitives": [
        {
          "mode": 1,
          "attributes": {
            "POSITION": 4,
            "COLOR_0": 5,
            "_LINEDISTANCE": 6
          },
          "material": 2
        }
      ]
    },
    {
      "primitives": [
        {
          "mode": 0,
          "attributes": {
            "POSITION": 0,
            "COLOR_0": 2
          },
          "material": 3
        }
      ]
    }
  ]
}