{
  "asset": {
    "version": "2.0",
    "generator": "THREE.GLTFExporter"
  },
  "scenes": [
    {
      "nodes": [
        0,
        1,
        2
      ]
    }
  ],
  "scene": 0,
  "nodes": [
    {
      "name": "obj_tri",
      "mesh": 0
    },
    {
      "name": "obj_line",
      "mesh": 1
    },
    {
      "name": "obj_pt",
      "mesh": 2
    }
  ],
  "bufferViews": [
    {
      "buffer": 0,
      "byteOffset": 0,
      "byteLength": 68220,
      "target": 34962,
      "byteStride": 12
    },
    {
      "buffer": 0,
      "byteOffset": 68220,
      "byteLength": 68220,
      "target": 34962,
      "byteStride": 12
    },
    {
      "buffer": 0,
      "byteOffset": 136440,
      "byteLength": 68220,
      "target": 34962,
      "byteStride": 12
    },
    {
      "buffer": 0,
      "byteOffset": 204660,
      "byteLength": 4844,
      "target": 34963
    },
    {
      "buffer": 0,
      "byteOffset": 209504,
      "byteLength": 72216,
      "target": 34962,
      "byteStride": 12
    },
    {
      "buffer": 0,
      "byteOffset": 281720,
      "byteLength": 72216,
      "target": 34962,
      "byteStride": 12
    },
    {
      "buffer": 0,
      "byteOffset": 353936,
      "byteLength": 24072,
      "target": 34962,
      "byteStride": 4
    },
    {
      "buffer": 0,
      "byteOffset": 378008,
      "byteLength": 2332,
      "target": 34963
    }
  ],
  "buffers": [
    {
      "byteLength": 380340,
      "uri": "data:application/octet-stream;base64,"
    }
  ],
  "accessors": [
    {
      "bufferView": 0,
      "componentType": 5126,
      "count": 5685,
      "max": [
        1639.207275390625,
        411.2939758300781,
        2
      ],
      "min": [
        -1336.39404296875,
        -1949.4700927734375,
        0
      ],
      "type": "VEC3"
    },
    {
      "bufferView": 1,
      "componentType": 5126,
      "count": 5685,
      "max": [
        1,
        0,
        1
      ],
      "min": [
        0,
        0,
        0
      ],
      "type": "VEC3"
    },
    {
      "bufferView": 2,
      "componentType": 5126,
      "count": 5685,
      "max": [
        1,
        1,
        1
      ],
      "min": [
        0.8100000023841858,
        0.5899999737739563,
        0.5600000023841858
      ],
      "type": "VEC3"
    },
    {
      "bufferView": 3,
      "componentType": 5123,
      "count": 2421,
      "max": [
        5684
      ],
      "min": [
        4790
      ],
      "type": "SCALAR"
    },
    {
      "bufferView": 4,
      "componentType": 5126,
      "count": 6018,
      "max": [
        1639.207275390625,
        407.5503845214844,
        2
      ],
      "min": [
        -1336.39404296875,
        -1945.5482177734375,
        0
      ],
      "type": "VEC3"
    },
    {
      "bufferView": 5,
      "componentType": 5126,
      "count": 6018,
      "max": [
        1,
        1,
        1
      ],
      "min": [
        0.8100000023841858,
        0.7900000214576721,
        0.7799999713897705
      ],
      "type": "VEC3"
    },
    {
      "bufferView": 6,
      "componentType": 5126,
      "count": 6018,
      "max": [
        93225.71875
      ],
      "min": [
        0
      ],
      "type": "SCALAR"
    },
    {
      "bufferView": 7,
      "componentType": 5123,
      "count": 1165,
      "max": [
        1164
      ],
      "min": [
        0
      ],
      "type": "SCALAR"
    }
  ],
  "materials": [
    {
      "pbrMetallicRoughness": {
        "metallicFactor": 0.5,
        "roughnessFactor": 0.5
      },
      "doubleSided": true
    },
    {
      "pbrMetallicRoughness": {
        "baseColorFactor": [
          0.8666666666666667,
          0.8666666666666667,
          0.8666666666666667,
          1
        ],
        "metallicFactor": 0.5,
        "roughnessFactor": 0.5
      },
      "doubleSided": true
    },
    {
      "pbrMetallicRoughness": {
        "metallicFactor": 0.5,
        "roughnessFactor": 0.5
      },
      "doubleSided": true
    },
    {
      "pbrMetallicRoughness": {
        "metallicFactor": 0.5,
        "roughnessFactor": 0.5
      },
      "doubleSided": true
    }
  ],
  "meshes": [
    {
      "primitives": [
        {
          "mode": 4,
          "attributes": {
            "POSITION": 0,
            "NORMAL": 1,
            "COLOR_0": 2
          },
          "indices": 3,
          "material": 0
        },
        {
          "mode": 4,
          "attributes": {
            "POSITION": 0,
            "NORMAL": 1,
            "COLOR_0": 2
          },
          "indices": 3,
          "material": 1
        }
      ]
    },
    {
      "primitives": [
        {
          "mode": 1,
          "attributes": {
            "POSITION": 4,
            "COLOR_0": 5,
            "_LINEDISTANCE": 6
          },
          "material": 2
        }
      ]
    },
    {
      "primitives": [
        {
          "mode": 0,
          "attributes": {
            "POSITION": 0,
            "COLOR_0": 2
          },
          "indices": 7,
          "material": 3
        }
      ]
    }
  ]
}